<svg xmlns="http://www.w3.org/2000/svg" width="3840" height="2400" viewBox="0 0 3840 2400">
  <defs>
    <linearGradient id="g" x1="0" y1="0" x2="1" y2="1">
      <stop offset="0%" stop-color="#0d2632"/>
      <stop offset="55%" stop-color="#113342"/>
      <stop offset="100%" stop-color="#18455a"/>
    </linearGradient>
    <radialGradient id="glow" cx="0.72" cy="0.42" r="0.62">
      <stop offset="0%" stop-color="#0d9474" stop-opacity="0.20"/>
      <stop offset="100%" stop-color="#0d9474" stop-opacity="0"/>
    </radialGradient>
  </defs>
  <rect width="3840" height="2400" fill="url(#g)"/>
  <rect width="3840" height="2400" fill="url(#glow)"/>
  <g transform="translate(2180,180) scale(2.30)" fill="#0d9474" opacity="0.16"><path d="m366.15,378.41l-57-57,10.2-10.2,57,57c10.2-10.2,24.8-17.5,39.4-20.5V23.51H21.45v394.4h324.3c2.8-14.6,10.1-29.2,20.4-39.5Z"/><path d="m459.55,23.61v324.3c14.6,2.9,29.2,10.2,39.4,20.5l57-57,10.2,10.2-57,57c10.2,11.7,16.1,24.8,20.5,39.4h324.3V23.61h-394.4Z"/><path d="m376.35,511.41l-57,57-10.2-10.2,57-57c-10.2-11.7-16.1-24.8-20.5-39.4H21.35v394.4h394.4v-324.4c-14.6-4.4-29.2-10.2-39.4-20.4Z"/></g>
</svg>
